<?xml version="1.0" encoding="utf-8"?>
<!-- Generator: Adobe Illustrator 25.0.0, SVG Export Plug-In . SVG Version: 6.00 Build 0)  -->
<svg version="1.1" id="Capa_1" xmlns="http://www.w3.org/2000/svg" xmlns:xlink="http://www.w3.org/1999/xlink" x="0px" y="0px"
	 width="74.5px" height="101.4px" viewBox="0 0 74.5 101.4" style="enable-background:new 0 0 74.5 101.4;" xml:space="preserve">
<style type="text/css">
	.st0{fill:#313A46;}
	.st1{fill:#FFFFFF;}
	.st2{fill:url(#SVGID_1_);}
	.st3{fill:#4C9AE8;}
	.st4{fill:url(#SVGID_2_);}
	.st5{fill:url(#SVGID_3_);}
	.st6{fill:url(#SVGID_4_);}
	.st7{fill:url(#SVGID_5_);}
	.st8{fill:url(#SVGID_6_);}
	.st9{fill:url(#SVGID_7_);}
	.st10{fill:url(#SVGID_8_);}
	.st11{fill:url(#SVGID_9_);}
	.st12{fill:url(#SVGID_10_);}
	.st13{fill:url(#SVGID_11_);}
</style>
<linearGradient id="SVGID_1_" gradientUnits="userSpaceOnUse" x1="77.6256" y1="27.4042" x2="-12.6388" y2="79.5184">
	<stop  offset="0" style="stop-color:#00DBDE"/>
	<stop  offset="1" style="stop-color:#FC00FF"/>
</linearGradient>
<path class="st2" d="M23.4,61.1V42.6V18.7v-0.3h13c4.8,0,8.4,1.1,10.9,3.2c2.4,2.1,3.7,5.1,3.7,9c0,3.9-1.2,6.8-3.7,8.9
	c-2.4,2.1-6.1,3.1-10.9,3.1H30v18.4h7.8c7.5,0,14-1.2,19.5-3.7c5.5-2.5,9.8-6,12.8-10.6c3-4.6,4.5-10,4.5-16.2
	c0-6.2-1.5-11.6-4.5-16.2c-3-4.6-7.2-8.2-12.8-10.6C51.8,1.2,45.3,0,37.8,0H0v18.7v82.7h23.4h51.1V82.9H23.4V61.1z"/>
</svg>
