<svg width="53" height="21" viewBox="0 0 53 21" fill="none" xmlns="http://www.w3.org/2000/svg">
<path d="M51.9354 1.16394V9.85247H49.9342L46.1576 5.22951V9.85247H43.8013V1.16394H45.8026L49.5791 5.78689V1.16394H51.9354Z" fill="#FDFBFB"/>
<path d="M35.3445 9.42618C34.6344 9.03274 34.0534 8.50815 33.6338 7.81962C33.2142 7.1311 33.0205 6.377 33.0205 5.49175C33.0205 4.63929 33.2142 3.85241 33.6338 3.16388C34.0534 2.47536 34.6021 1.95077 35.3445 1.55733C36.0869 1.16388 36.8616 0.967163 37.7654 0.967163C38.6692 0.967163 39.4761 1.16388 40.1862 1.55733C40.8964 1.95077 41.4774 2.47536 41.897 3.16388C42.3166 3.85241 42.5103 4.60651 42.5103 5.49175C42.5103 6.34421 42.3166 7.1311 41.897 7.81962C41.4774 8.50815 40.9286 9.03274 40.1862 9.42618C39.4761 9.81962 38.6692 10.0163 37.7654 10.0163C36.8939 10.0163 36.0869 9.81962 35.3445 9.42618ZM38.9597 7.68848C39.3147 7.49175 39.573 7.19667 39.7989 6.80323C39.9926 6.44257 40.0894 5.98356 40.0894 5.49175C40.0894 4.99995 39.9926 4.57372 39.7989 4.21307C39.6052 3.85241 39.3147 3.55733 38.9597 3.32782C38.6046 3.1311 38.2173 3.03274 37.7977 3.03274C37.378 3.03274 36.9907 3.1311 36.6357 3.32782C36.2806 3.52454 36.0224 3.81962 35.7964 4.21307C35.6028 4.57372 35.5059 5.03274 35.5059 5.49175C35.5059 5.98356 35.6028 6.40979 35.7964 6.80323C35.9901 7.16389 36.2806 7.45897 36.6357 7.68848C36.9907 7.8852 37.378 7.98356 37.7977 7.98356C38.2173 7.98356 38.6046 7.8852 38.9597 7.68848Z" fill="#FDFBFB"/>
<path d="M29.3408 1.16394H31.7616V9.85247H29.3408V1.16394Z" fill="#FDFBFB"/>
<path d="M26.4035 1.55738C26.9845 1.81968 27.4041 2.18033 27.7269 2.67214C28.0497 3.16394 28.1788 3.72132 28.1788 4.37706C28.1788 5.03279 28.0174 5.59017 27.7269 6.08197C27.4041 6.57378 26.9845 6.93443 26.4035 7.19673C25.8225 7.45902 25.1769 7.59017 24.4022 7.59017H22.9174V9.85247H20.4966V1.16394H24.4022C25.1446 1.16394 25.8225 1.29509 26.4035 1.55738ZM25.3383 5.32788C25.5965 5.09837 25.7256 4.80329 25.7256 4.37706C25.7256 3.98361 25.5965 3.65574 25.3383 3.42624C25.0801 3.19673 24.725 3.09837 24.2086 3.09837H22.8529V5.65574H24.2086C24.725 5.65574 25.1123 5.5246 25.3383 5.32788Z" fill="#FDFBFB"/>
<path d="M49.3531 20.8688L48.1589 19.0983L46.9 20.8688H44.3823L46.9 17.5246L44.4792 14.1803H47.0937L48.2557 15.8852L49.4823 14.1803H51.9354L49.5145 17.4262L52.0322 20.8688H49.3531Z" fill="#FDFBFB"/>
<path d="M43.769 18.1148H38.9919C39.0887 18.4754 39.2824 18.7377 39.5729 18.9017C39.8634 19.0984 40.2184 19.164 40.6381 19.164C40.9608 19.164 41.2191 19.1312 41.445 19.0328C41.671 18.9345 41.8969 18.8033 42.1551 18.5738L43.3817 19.8525C42.7361 20.5738 41.8001 20.9345 40.5735 20.9345C39.7988 20.9345 39.121 20.7705 38.54 20.4754C37.959 20.1804 37.5071 19.7541 37.1843 19.2295C36.8615 18.705 36.7001 18.1148 36.7001 17.4263C36.7001 16.7705 36.8615 16.1804 37.1843 15.6558C37.5071 15.1312 37.9267 14.7377 38.4754 14.4427C39.0242 14.1476 39.6374 13.9836 40.3476 13.9836C40.9931 13.9836 41.6064 14.1148 42.1229 14.4099C42.6716 14.6722 43.0912 15.0984 43.3817 15.623C43.7045 16.1476 43.8659 16.7705 43.8659 17.4918C43.8013 17.5574 43.8013 17.7541 43.769 18.1148ZM39.4115 16.0492C39.1855 16.2459 39.0242 16.541 38.9596 16.9017H41.671C41.6064 16.541 41.445 16.2787 41.2191 16.0492C40.9931 15.8525 40.6703 15.7541 40.3153 15.7541C39.9279 15.7541 39.6374 15.8525 39.4115 16.0492Z" fill="#FDFBFB"/>
<path d="M29.3408 12.2131H31.7616V18.9344H35.8287V20.8689H29.3408V12.2131Z" fill="#FDFBFB"/>
<path d="M4.55121 13.0328V9.39344V4.70492V4.63934H7.0689C8.00497 4.63934 8.71508 4.83607 9.16698 5.2623C9.65115 5.68852 9.87709 6.27869 9.87709 7.03279C9.87709 7.78689 9.65115 8.37705 9.16698 8.80328C8.68281 9.22951 8.00497 9.42623 7.0689 9.42623H5.81006V13.0656H7.32713C8.77964 13.0656 10.0385 12.8361 11.1037 12.3443C12.1688 11.8525 13.0081 11.1639 13.5891 10.2459C14.1701 9.36066 14.4606 8.27869 14.4606 7.06557C14.4606 5.85246 14.1701 4.77049 13.5891 3.85246C13.0081 2.93443 12.1688 2.2459 11.1037 1.7541C10.0385 1.22951 8.77964 1 7.32713 1H0V4.70492V21H4.55121H14.4929V17.3279H4.55121V13.0328Z" fill="#FDFBFB"/>
</svg>
