<svg width="101" height="27" viewBox="0 0 101 27" fill="none" xmlns="http://www.w3.org/2000/svg">
<path d="M68.2283 22.372V1.75274H63.5095V22.3523H6.22773V14.7702H9.75185C11.6035 14.7702 13.1963 14.4748 14.5303 13.8643C15.8643 13.2735 16.8996 12.407 17.6363 11.3042C18.373 10.2013 18.7314 8.90153 18.7314 7.40481C18.7314 5.8884 18.373 4.56893 17.6363 3.44639C16.8996 2.34354 15.8643 1.47702 14.5303 0.886214C13.1963 0.295405 11.6035 0 9.75185 0H0.513489V27H6.22773H77.8648V22.3326H68.2283V22.372ZM6.22773 4.47046H9.39346C10.5881 4.47046 11.484 4.72648 12.0614 5.23851C12.6388 5.75055 12.9375 6.47921 12.9375 7.40481C12.9375 8.31072 12.6388 9.03939 12.0614 9.55142C11.484 10.0635 10.5881 10.3195 9.39346 10.3195H6.22773V4.47046Z" fill="url(#paint0_linear_676_441)"/>
<path d="M100.486 20.0834L95.3647 13.2147L100.308 6.6637H95.325L92.8634 10.0583L90.4812 6.6637H85.1808L90.1437 13.3736L85.0419 20.0834H90.1239L92.7046 16.5697L95.1067 20.0834H100.486Z" fill="#232D37"/>
<path d="M81.2304 7.25923C80.1385 6.72324 78.9276 6.44531 77.6174 6.44531C76.2079 6.44531 74.9572 6.74309 73.8257 7.31879C72.6941 7.91434 71.8207 8.72825 71.1854 9.76054C70.5502 10.8127 70.2325 12.0038 70.2325 13.3338C70.2325 14.6639 70.5502 15.855 71.2053 16.9071C71.8604 17.9593 72.7736 18.7732 73.9448 19.3886C75.116 19.9841 76.5057 20.3018 78.0938 20.3018C79.3842 20.3018 80.4959 20.1231 81.4289 19.7459C82.3619 19.3687 83.156 18.8328 83.8111 18.1181L81.3296 15.5374C80.873 15.9344 80.3966 16.2322 79.94 16.4108C79.4636 16.6094 78.9077 16.6888 78.2526 16.6888C77.538 16.6888 76.9226 16.5697 76.4263 16.3116C75.9101 16.0535 75.5131 15.6962 75.255 15.2197C75.1359 15.0212 75.0565 14.783 74.9771 14.5448H84.7243C84.7441 14.3661 84.764 14.1676 84.764 13.9492C84.7838 13.7309 84.7838 13.5522 84.7838 13.3735C84.7838 11.8847 84.4662 10.634 83.8111 9.58188C83.1758 8.56944 82.3024 7.79523 81.2304 7.25923ZM76.1682 10.1576C76.5851 9.91935 77.0814 9.78039 77.6372 9.78039C78.1931 9.78039 78.6894 9.8995 79.1062 10.1576C79.5231 10.3958 79.8606 10.7531 80.0988 11.1899C80.2378 11.4479 80.337 11.7656 80.3767 12.0832H74.8977C74.9572 11.7656 75.0366 11.4678 75.1756 11.2097C75.4138 10.7531 75.7315 10.4156 76.1682 10.1576Z" fill="#232D37"/>
<path d="M57.6665 7.08057C56.8327 6.66368 55.8798 6.44531 54.8475 6.44531C53.716 6.44531 52.7234 6.68353 51.8301 7.17982C51.3735 7.4379 50.9566 7.75552 50.5993 8.1327V6.66368H46.1128V20.0834H50.8176V13.6118C50.8176 12.8773 50.9367 12.2618 51.1551 11.8053C51.3933 11.3487 51.711 10.9913 52.1278 10.773C52.5447 10.5546 53.0013 10.4355 53.4976 10.4355C54.1924 10.4355 54.7284 10.6539 55.1255 11.0906C55.5225 11.5273 55.7011 12.2221 55.7011 13.175V20.0834H60.406V12.4207C60.406 11.031 60.1678 9.8995 59.6715 9.02603C59.1553 8.15256 58.5002 7.49745 57.6665 7.08057Z" fill="#232D37"/>
<path d="M40.2763 7.33856C39.1249 6.76286 37.8147 6.46509 36.3457 6.46509C34.8767 6.46509 33.5665 6.76286 32.4349 7.33856C31.3034 7.93411 30.4101 8.72818 29.755 9.78032C29.0999 10.8126 28.7822 12.0236 28.7822 13.3735C28.7822 14.7234 29.0999 15.9343 29.755 16.9666C30.4101 18.0188 31.3034 18.8327 32.4349 19.4282C33.5665 20.0238 34.8767 20.3216 36.3457 20.3216C37.8147 20.3216 39.1249 20.0238 40.2763 19.4282C41.4277 18.8327 42.3211 18.0188 42.9563 16.9666C43.5916 15.9145 43.929 14.7234 43.929 13.3735C43.929 12.0236 43.6114 10.8325 42.9563 9.78032C42.3211 8.72818 41.4079 7.91426 40.2763 7.33856ZM38.7875 15.1006C38.5492 15.5969 38.2118 15.9542 37.7949 16.1924C37.378 16.4306 36.8817 16.5696 36.3457 16.5696C35.8097 16.5696 35.3333 16.4505 34.9164 16.1924C34.4995 15.9343 34.162 15.577 33.904 15.1006C33.6459 14.6043 33.5268 14.0286 33.5268 13.3536C33.5268 12.6787 33.6459 12.103 33.904 11.6265C34.162 11.1501 34.4995 10.7928 34.9164 10.5545C35.3333 10.3163 35.8097 10.1773 36.3457 10.1773C36.8817 10.1773 37.378 10.2965 37.7949 10.5545C38.2118 10.7928 38.5492 11.1699 38.7875 11.6265C39.0257 12.0831 39.1646 12.6787 39.1646 13.3536C39.1646 14.0286 39.0455 14.6241 38.7875 15.1006Z" fill="#232D37"/>
<path d="M26.5787 6.6637H21.8738V20.0834H26.5787V6.6637Z" fill="#232D37"/>
<path d="M26.3008 0.866973C25.7648 0.410385 25.07 0.192017 24.2164 0.192017C23.3628 0.192017 22.668 0.430237 22.132 0.906676C21.596 1.38312 21.3379 1.97867 21.3379 2.69333C21.3379 3.40799 21.596 4.00354 22.132 4.47998C22.668 4.95642 23.3628 5.19464 24.2164 5.19464C25.0899 5.19464 25.7847 4.95642 26.3008 4.46012C26.8169 3.96383 27.075 3.36828 27.075 2.61392C27.0949 1.89926 26.8169 1.32356 26.3008 0.866973Z" fill="#232D37"/>
<defs>
<linearGradient id="paint0_linear_676_441" x1="59.6586" y1="-6.72105" x2="13.5358" y2="39.909" gradientUnits="userSpaceOnUse">
<stop stop-color="#00DBDE"/>
<stop offset="1" stop-color="#FC00FF"/>
</linearGradient>
</defs>
</svg>
