<svg width="53" height="21" viewBox="0 0 53 21" fill="none" xmlns="http://www.w3.org/2000/svg">
<path d="M51.9354 1.16406V9.85259H49.9342L46.1576 5.22964V9.85259H43.8013V1.16406H45.8026L49.5791 5.78701V1.16406H51.9354Z" fill="#29323C"/>
<path d="M35.3445 9.4263C34.6344 9.03286 34.0534 8.50827 33.6338 7.81974C33.2142 7.13122 33.0205 6.37712 33.0205 5.49188C33.0205 4.63942 33.2142 3.85253 33.6338 3.16401C34.0534 2.47548 34.6021 1.95089 35.3445 1.55745C36.0869 1.16401 36.8616 0.967285 37.7654 0.967285C38.6692 0.967285 39.4761 1.16401 40.1862 1.55745C40.8964 1.95089 41.4774 2.47548 41.897 3.16401C42.3166 3.85253 42.5103 4.60663 42.5103 5.49188C42.5103 6.34433 42.3166 7.13122 41.897 7.81974C41.4774 8.50827 40.9286 9.03286 40.1862 9.4263C39.4761 9.81975 38.6692 10.0165 37.7654 10.0165C36.8939 10.0165 36.0869 9.81975 35.3445 9.4263ZM38.9597 7.6886C39.3147 7.49188 39.573 7.19679 39.7989 6.80335C39.9926 6.4427 40.0894 5.98368 40.0894 5.49188C40.0894 5.00007 39.9926 4.57384 39.7989 4.21319C39.6052 3.85253 39.3147 3.55745 38.9597 3.32794C38.6046 3.13122 38.2173 3.03286 37.7977 3.03286C37.378 3.03286 36.9907 3.13122 36.6357 3.32794C36.2806 3.52466 36.0224 3.81974 35.7964 4.21319C35.6028 4.57384 35.5059 5.03286 35.5059 5.49188C35.5059 5.98368 35.6028 6.40991 35.7964 6.80335C35.9901 7.16401 36.2806 7.45909 36.6357 7.6886C36.9907 7.88532 37.378 7.98368 37.7977 7.98368C38.2173 7.98368 38.6046 7.88532 38.9597 7.6886Z" fill="#29323C"/>
<path d="M29.3408 1.16406H31.7616V9.85259H29.3408V1.16406Z" fill="#29323C"/>
<path d="M26.4035 1.55751C26.9845 1.8198 27.4041 2.18046 27.7269 2.67226C28.0497 3.16406 28.1788 3.72144 28.1788 4.37718C28.1788 5.03292 28.0174 5.59029 27.7269 6.0821C27.4041 6.5739 26.9845 6.93455 26.4035 7.19685C25.8225 7.45914 25.1769 7.59029 24.4022 7.59029H22.9174V9.85259H20.4966V1.16406H24.4022C25.1446 1.16406 25.8225 1.29521 26.4035 1.55751ZM25.3383 5.328C25.5965 5.09849 25.7256 4.80341 25.7256 4.37718C25.7256 3.98373 25.5965 3.65587 25.3383 3.42636C25.0801 3.19685 24.725 3.09849 24.2086 3.09849H22.8529V5.65587H24.2086C24.725 5.65587 25.1123 5.52472 25.3383 5.328Z" fill="#29323C"/>
<path d="M49.3531 20.8692L48.1589 19.0987L46.9 20.8692H44.3823L46.9 17.5249L44.4792 14.1807H47.0937L48.2557 15.8856L49.4823 14.1807H51.9354L49.5145 17.4266L52.0322 20.8692H49.3531Z" fill="#29323C"/>
<path d="M43.769 18.115H38.9919C39.0887 18.4757 39.2824 18.738 39.5729 18.9019C39.8634 19.0986 40.2184 19.1642 40.6381 19.1642C40.9608 19.1642 41.2191 19.1314 41.445 19.0331C41.671 18.9347 41.8969 18.8036 42.1551 18.5741L43.3817 19.8527C42.7361 20.5741 41.8001 20.9347 40.5735 20.9347C39.7988 20.9347 39.121 20.7708 38.54 20.4757C37.959 20.1806 37.5071 19.7544 37.1843 19.2298C36.8615 18.7052 36.7001 18.115 36.7001 17.4265C36.7001 16.7708 36.8615 16.1806 37.1843 15.656C37.5071 15.1314 37.9267 14.738 38.4754 14.4429C39.0242 14.1478 39.6374 13.9839 40.3476 13.9839C40.9931 13.9839 41.6064 14.115 42.1229 14.4101C42.6716 14.6724 43.0912 15.0986 43.3817 15.6232C43.7045 16.1478 43.8659 16.7708 43.8659 17.4921C43.8013 17.5577 43.8013 17.7544 43.769 18.115ZM39.4115 16.0495C39.1855 16.2462 39.0242 16.5413 38.9596 16.9019H41.671C41.6064 16.5413 41.445 16.279 41.2191 16.0495C40.9931 15.8527 40.6703 15.7544 40.3153 15.7544C39.9279 15.7544 39.6374 15.8527 39.4115 16.0495Z" fill="#29323C"/>
<path d="M29.3408 12.2134H31.7616V18.9347H35.8287V20.8691H29.3408V12.2134Z" fill="#29323C"/>
<path d="M4.55121 13.0328V9.39344V4.70492V4.63934H7.0689C8.00497 4.63934 8.71508 4.83607 9.16698 5.2623C9.65115 5.68852 9.87709 6.27869 9.87709 7.03279C9.87709 7.78689 9.65115 8.37705 9.16698 8.80328C8.68281 9.22951 8.00497 9.42623 7.0689 9.42623H5.81006V13.0656H7.32713C8.77964 13.0656 10.0385 12.8361 11.1037 12.3443C12.1688 11.8525 13.0081 11.1639 13.5891 10.2459C14.1701 9.36066 14.4606 8.27869 14.4606 7.06557C14.4606 5.85246 14.1701 4.77049 13.5891 3.85246C13.0081 2.93443 12.1688 2.2459 11.1037 1.7541C10.0385 1.22951 8.77964 1 7.32713 1H0V4.70492V21H4.55121H14.4929V17.3279H4.55121V13.0328Z" fill="#29323C"/>
</svg>
